<svg xmlns="http://www.w3.org/2000/svg" xmlns:xlink="http://www.w3.org/1999/xlink" viewBox="0 0 483.13 171.54"><defs><style>.cls-1,.cls-10,.cls-13,.cls-7{font-size:80px;}.cls-1,.cls-5,.cls-6{fill:#56446b;}.cls-1,.cls-10,.cls-12,.cls-13,.cls-15,.cls-6,.cls-7,.cls-9{font-family:Livingstone;}.cls-2{letter-spacing:-0.07em;}.cls-3{letter-spacing:-0.02em;}.cls-4{letter-spacing:-0.03em;}.cls-12,.cls-15,.cls-6,.cls-9{font-size:156.42px;}.cls-7,.cls-8,.cls-9{fill:#fee761;}.cls-10,.cls-11,.cls-12{fill:#feae34;}.cls-13,.cls-14,.cls-15{fill:#4f4560;}.cls-16{fill:url(#Gradiente_sem_nome_23);}.cls-17{fill:url(#Gradiente_sem_nome_23-2);}.cls-18{fill:url(#Gradiente_sem_nome_23-3);}.cls-19{fill:url(#Gradiente_sem_nome_23-4);}.cls-20{fill:url(#Gradiente_sem_nome_23-5);}.cls-21{fill:url(#Gradiente_sem_nome_23-6);}.cls-22{fill:url(#Gradiente_sem_nome_23-7);}.cls-23{fill:url(#Gradiente_sem_nome_23-8);}.cls-24{fill:url(#Gradiente_sem_nome_23-9);}.cls-25{fill:url(#Gradiente_sem_nome_23-10);}.cls-26{fill:url(#Gradiente_sem_nome_23-11);}.cls-27{fill:url(#Gradiente_sem_nome_23-12);}.cls-28{fill:url(#Gradiente_sem_nome_23-13);}.cls-29{fill:url(#Gradiente_sem_nome_23-14);}.cls-30{fill:url(#Gradiente_sem_nome_23-15);}.cls-31{fill:url(#Gradiente_sem_nome_23-16);}.cls-32{fill:url(#Gradiente_sem_nome_23-17);}.cls-33{fill:url(#Gradiente_sem_nome_23-18);}.cls-34{fill:url(#Gradiente_sem_nome_23-19);}.cls-35{fill:url(#Gradiente_sem_nome_23-20);}.cls-36{fill:url(#Gradiente_sem_nome_23-21);}.cls-37{fill:url(#Gradiente_sem_nome_23-22);}.cls-38{fill:url(#Gradiente_sem_nome_23-23);}</style><linearGradient id="Gradiente_sem_nome_23" x1="192.32" y1="161.33" x2="200.49" y2="161.33" gradientUnits="userSpaceOnUse"><stop offset="0" stop-color="#feae34"/><stop offset="0.29" stop-color="#fec244"/><stop offset="0.73" stop-color="#fedd59"/><stop offset="1" stop-color="#fee761"/></linearGradient><linearGradient id="Gradiente_sem_nome_23-2" x1="203.68" y1="162.53" x2="218.44" y2="162.53" xlink:href="#Gradiente_sem_nome_23"/><linearGradient id="Gradiente_sem_nome_23-3" x1="227.81" y1="160.93" x2="237.07" y2="160.93" xlink:href="#Gradiente_sem_nome_23"/><linearGradient id="Gradiente_sem_nome_23-4" x1="240.31" y1="162.76" x2="249.19" y2="162.76" xlink:href="#Gradiente_sem_nome_23"/><linearGradient id="Gradiente_sem_nome_23-5" x1="252.25" y1="162.64" x2="260.86" y2="162.64" xlink:href="#Gradiente_sem_nome_23"/><linearGradient id="Gradiente_sem_nome_23-6" x1="263.34" y1="162.64" x2="271.03" y2="162.64" xlink:href="#Gradiente_sem_nome_23"/><linearGradient id="Gradiente_sem_nome_23-7" x1="273.25" y1="162.64" x2="282.2" y2="162.64" xlink:href="#Gradiente_sem_nome_23"/><linearGradient id="Gradiente_sem_nome_23-8" x1="290.98" y1="160.97" x2="300.24" y2="160.97" xlink:href="#Gradiente_sem_nome_23"/><linearGradient id="Gradiente_sem_nome_23-9" x1="303.58" y1="162.64" x2="313.15" y2="162.64" xlink:href="#Gradiente_sem_nome_23"/><linearGradient id="Gradiente_sem_nome_23-10" x1="321.24" y1="161.37" x2="326.97" y2="161.37" xlink:href="#Gradiente_sem_nome_23"/><linearGradient id="Gradiente_sem_nome_23-11" x1="329.37" y1="162.64" x2="338.31" y2="162.64" xlink:href="#Gradiente_sem_nome_23"/><linearGradient id="Gradiente_sem_nome_23-12" x1="342.13" y1="162.53" x2="351.02" y2="162.53" xlink:href="#Gradiente_sem_nome_23"/><linearGradient id="Gradiente_sem_nome_23-13" x1="353.98" y1="163.79" x2="363.53" y2="163.79" xlink:href="#Gradiente_sem_nome_23"/><linearGradient id="Gradiente_sem_nome_23-14" x1="366.18" y1="162.48" x2="371.41" y2="162.48" xlink:href="#Gradiente_sem_nome_23"/><linearGradient id="Gradiente_sem_nome_23-15" x1="373.19" y1="162.64" x2="382.14" y2="162.64" xlink:href="#Gradiente_sem_nome_23"/><linearGradient id="Gradiente_sem_nome_23-16" x1="385.96" y1="162.53" x2="400.72" y2="162.53" xlink:href="#Gradiente_sem_nome_23"/><linearGradient id="Gradiente_sem_nome_23-17" x1="410.09" y1="164.35" x2="419.35" y2="164.35" xlink:href="#Gradiente_sem_nome_23"/><linearGradient id="Gradiente_sem_nome_23-18" x1="422.1" y1="162.64" x2="431.15" y2="162.64" xlink:href="#Gradiente_sem_nome_23"/><linearGradient id="Gradiente_sem_nome_23-19" x1="434.72" y1="162.48" x2="439.95" y2="162.48" xlink:href="#Gradiente_sem_nome_23"/><linearGradient id="Gradiente_sem_nome_23-20" x1="441.84" y1="160.97" x2="451.1" y2="160.97" xlink:href="#Gradiente_sem_nome_23"/><linearGradient id="Gradiente_sem_nome_23-21" x1="454.82" y1="160.34" x2="457.82" y2="160.34" xlink:href="#Gradiente_sem_nome_23"/><linearGradient id="Gradiente_sem_nome_23-22" x1="460.95" y1="160.97" x2="470.21" y2="160.97" xlink:href="#Gradiente_sem_nome_23"/><linearGradient id="Gradiente_sem_nome_23-23" x1="473.55" y1="162.64" x2="483.13" y2="162.64" xlink:href="#Gradiente_sem_nome_23"/></defs><g id="Camada_2" data-name="Camada 2"><g id="Camada_2-2" data-name="Camada 2"><text class="cls-1" transform="translate(105.14 122.11)"><tspan class="cls-2">p</tspan><tspan class="cls-3" x="40.43" y="0">t</tspan><tspan x="77.26" y="0">anda</tspan><tspan class="cls-4" x="250.97" y="0">r</tspan><tspan x="293.67" y="0">a</tspan></text><path class="cls-5" d="M99.6,78.08H80.11L93.54,96.62,80.11,115.17H99.6v6.75H71.2V115.8L85.05,96.62,71.2,77.45V71.33H99.6Z"/><text class="cls-6" transform="translate(0 122.08)">S</text><text class="cls-7" transform="translate(108.14 125.71)"><tspan class="cls-2">p</tspan><tspan class="cls-3" x="40.43" y="0">t</tspan><tspan x="77.26" y="0">anda</tspan><tspan class="cls-4" x="250.97" y="0">r</tspan><tspan x="293.67" y="0">a</tspan></text><path class="cls-8" d="M102.6,81.68H83.11l13.43,18.54L83.11,118.77H102.6v6.75H74.2V119.4l13.85-19.18L74.2,81.05V74.93h28.4Z"/><text class="cls-9" transform="translate(3 125.68)">S</text><text class="cls-7" transform="translate(107.14 124.51)"><tspan class="cls-2">p</tspan><tspan class="cls-3" x="40.43" y="0">t</tspan><tspan x="77.26" y="0">anda</tspan><tspan class="cls-4" x="250.97" y="0">r</tspan><tspan x="293.67" y="0">a</tspan></text><path class="cls-8" d="M101.6,80.48H82.11L95.54,99,82.11,117.57H101.6v6.75H73.2V118.2L87.05,99,73.2,79.85V73.73h28.4Z"/><text class="cls-9" transform="translate(2 124.48)">S</text><text class="cls-7" transform="translate(106.14 123.31)"><tspan class="cls-2">p</tspan><tspan class="cls-3" x="40.43" y="0">t</tspan><tspan x="77.26" y="0">anda</tspan><tspan class="cls-4" x="250.97" y="0">r</tspan><tspan x="293.67" y="0">a</tspan></text><path class="cls-8" d="M100.6,79.28H81.11L94.54,97.82,81.11,116.37H100.6v6.75H72.2V117L86.05,97.82,72.2,78.65V72.53h28.4Z"/><text class="cls-9" transform="translate(1 123.28)">S</text><text class="cls-7" transform="translate(105.14 122.11)"><tspan class="cls-2">p</tspan><tspan class="cls-3" x="40.43" y="0">t</tspan><tspan x="77.26" y="0">anda</tspan><tspan class="cls-4" x="250.97" y="0">r</tspan><tspan x="293.67" y="0">a</tspan></text><path class="cls-8" d="M99.6,78.08H80.11L93.54,96.62,80.11,115.17H99.6v6.75H71.2V115.8L85.05,96.62,71.2,77.45V71.33H99.6Z"/><text class="cls-9" transform="translate(0 122.08)">S</text><text class="cls-10" transform="translate(107.14 124.11)"><tspan class="cls-2">p</tspan><tspan class="cls-3" x="40.43" y="0">t</tspan><tspan x="77.26" y="0">anda</tspan><tspan class="cls-4" x="250.97" y="0">r</tspan><tspan x="293.67" y="0">a</tspan></text><path class="cls-11" d="M101.6,80.08H82.11L95.54,98.62,82.11,117.17H101.6v6.75H73.2V117.8L87.05,98.62,73.2,79.45V73.33h28.4Z"/><text class="cls-12" transform="translate(2 124.08)">S</text><text class="cls-10" transform="translate(106.14 123.11)"><tspan class="cls-2">p</tspan><tspan class="cls-3" x="40.43" y="0">t</tspan><tspan x="77.26" y="0">anda</tspan><tspan class="cls-4" x="250.97" y="0">r</tspan><tspan x="293.67" y="0">a</tspan></text><path class="cls-11" d="M100.6,79.08H81.11L94.54,97.62,81.11,116.17H100.6v6.75H72.2V116.8L86.05,97.62,72.2,78.45V72.33h28.4Z"/><text class="cls-12" transform="translate(1 123.08)">S</text><text class="cls-10" transform="translate(105.14 122.11)"><tspan class="cls-2">p</tspan><tspan class="cls-3" x="40.43" y="0">t</tspan><tspan x="77.26" y="0">anda</tspan><tspan class="cls-4" x="250.97" y="0">r</tspan><tspan x="293.67" y="0">a</tspan></text><path class="cls-11" d="M99.6,78.08H80.11L93.54,96.62,80.11,115.17H99.6v6.75H71.2V115.8L85.05,96.62,71.2,77.45V71.33H99.6Z"/><text class="cls-12" transform="translate(0 122.08)">S</text><text class="cls-13" transform="translate(105.14 122.11)"><tspan class="cls-2">p</tspan><tspan class="cls-3" x="40.43" y="0">t</tspan><tspan x="77.26" y="0">anda</tspan><tspan class="cls-4" x="250.97" y="0">r</tspan><tspan x="293.67" y="0">a</tspan></text><path class="cls-14" d="M99.6,78.08H80.11L93.54,96.62,80.11,115.17H99.6v6.75H71.2V115.8L85.05,96.62,71.2,77.45V71.33H99.6Z"/><text class="cls-15" transform="translate(0 122.08)">S</text><path class="cls-16" d="M194.9,162.3v3.45h5.59v2.14h-8.17V154.77h8.13l-.3,2.14H194.9v3.44h4.79v2Z"/><path class="cls-17" d="M203.68,167.89v-10.5h1.22l.67,1.05a5.6,5.6,0,0,1,1.73-1,6.43,6.43,0,0,1,2-.31,4.16,4.16,0,0,1,2.24.49,1.61,1.61,0,0,1,.76,1.44v8.8h-2.58v-8.61h-2a2.34,2.34,0,0,0-1.23.23,1,1,0,0,0-.32.84v7.54Zm6.09,0v-10.5l1.89,1.05a5.6,5.6,0,0,1,1.73-1,6.43,6.43,0,0,1,2.05-.31,4.16,4.16,0,0,1,2.24.49,1.61,1.61,0,0,1,.76,1.44v8.8h-2.58v-8.61h-2a2.34,2.34,0,0,0-1.23.23,1,1,0,0,0-.33.84v7.54Z"/><path class="cls-18" d="M227.81,154l2.58-.27v12.85l2.21,1.53a16.85,16.85,0,0,1-2.46-.16,14.57,14.57,0,0,1-2.33-.53Zm5.31,3.07a5.77,5.77,0,0,1,1.9.26,2.39,2.39,0,0,1,1.22.89,4.09,4.09,0,0,1,.64,1.7,15.69,15.69,0,0,1,.19,2.71,13.41,13.41,0,0,1-.22,2.67,4,4,0,0,1-.71,1.68,2.8,2.8,0,0,1-1.37.87,7.8,7.8,0,0,1-2.17.26,6.28,6.28,0,0,1-1.9-.24,2.2,2.2,0,0,1-1.17-.84,3.85,3.85,0,0,1-.57-1.67,18.52,18.52,0,0,1-.16-2.73,16.08,16.08,0,0,1,.19-2.76,3.74,3.74,0,0,1,.66-1.7,2.42,2.42,0,0,1,1.32-.86A8.12,8.12,0,0,1,233.12,157.08Zm1.22,2h-3a1.76,1.76,0,0,0-.73.11.44.44,0,0,0-.2.42v6.4h3a2,2,0,0,0,.74-.09.35.35,0,0,0,.2-.35Z"/><path class="cls-19" d="M249.19,157.39v10.5H248l-.67-1a5.9,5.9,0,0,1-1.86,1,7.71,7.71,0,0,1-2.28.31,3.3,3.3,0,0,1-2.16-.58,2.22,2.22,0,0,1-.69-1.81v-8.34h2.58v8.84h2.16a2.34,2.34,0,0,0,1.23-.23,1,1,0,0,0,.33-.84v-7.77Z"/><path class="cls-20" d="M252.46,160.31a2.92,2.92,0,0,1,1-2.46,5.14,5.14,0,0,1,3.15-.77,16.82,16.82,0,0,1,1.91.1,10.94,10.94,0,0,1,1.81.36l-.34,1.85a8.47,8.47,0,0,0-1.2-.24,12.34,12.34,0,0,0-1.34-.08c-.42,0-.83,0-1.23.05a10.11,10.11,0,0,0-1,.14v2.08c1.17.15,2.12.32,2.85.49a6,6,0,0,1,1.71.64,2,2,0,0,1,.85,1,3.69,3.69,0,0,1,.24,1.42,3.61,3.61,0,0,1-.46,2,2.63,2.63,0,0,1-1.48,1.07,8.87,8.87,0,0,1-2.68.34,12.56,12.56,0,0,1-2-.17,16.43,16.43,0,0,1-2-.46l.4-2a9.11,9.11,0,0,0,3.41.63c.37,0,.71,0,1-.05a9.55,9.55,0,0,0,1.06-.2v-2.1q-1.85-.26-3-.51a5.47,5.47,0,0,1-1.7-.61,1.91,1.91,0,0,1-.79-1A4.38,4.38,0,0,1,252.46,160.31Z"/><path class="cls-21" d="M267.35,168.12a6.25,6.25,0,0,1-1.93-.26,2.48,2.48,0,0,1-1.23-.88,4.19,4.19,0,0,1-.65-1.68,15.11,15.11,0,0,1-.2-2.66,15.31,15.31,0,0,1,.2-2.67,4.07,4.07,0,0,1,.65-1.68,2.52,2.52,0,0,1,1.23-.87,6.25,6.25,0,0,1,1.93-.26c.39,0,.8,0,1.22.05s.83.08,1.22.14a5.74,5.74,0,0,1,1,.21l-.28,1.89a10.31,10.31,0,0,0-1.35-.24,12.62,12.62,0,0,0-1.38-.08,1.83,1.83,0,0,0-1.34.39,1.92,1.92,0,0,0-.38,1.34v5.08a6.56,6.56,0,0,0,1.89.21,7.39,7.39,0,0,0,1.33-.12,8.73,8.73,0,0,0,1.49-.41l.25,1.85a8.18,8.18,0,0,1-1.71.48A10.69,10.69,0,0,1,267.35,168.12Z"/><path class="cls-22" d="M276.57,168.12a3.59,3.59,0,0,1-2.54-.75,3.39,3.39,0,0,1-.78-2.5,4.83,4.83,0,0,1,.25-1.71,1.84,1.84,0,0,1,.86-1,4.69,4.69,0,0,1,1.79-.5,28.31,28.31,0,0,1,3.07-.13h1V163h-3a2.47,2.47,0,0,0-1.31.24,1.07,1.07,0,0,0-.33.91v2H278a2.43,2.43,0,0,0,1.29-.24,1,1,0,0,0,.35-.87v-5.78a6.65,6.65,0,0,0-1.89-.21,13.93,13.93,0,0,0-1.77.13,14.49,14.49,0,0,0-1.91.4l-.33-1.85a9.85,9.85,0,0,1,1.31-.36c.48-.09,1-.17,1.52-.22s1.05-.07,1.55-.07a7.73,7.73,0,0,1,2.39.3,2.38,2.38,0,0,1,1.3,1,3.55,3.55,0,0,1,.41,1.82v7.62H281l-.67-1A5.59,5.59,0,0,1,276.57,168.12Z"/><path class="cls-23" d="M294.93,157.16a8.05,8.05,0,0,1,2.16.24,2.46,2.46,0,0,1,1.31.84,3.61,3.61,0,0,1,.66,1.67,15.7,15.7,0,0,1,.19,2.73,16.26,16.26,0,0,1-.19,2.78,3.65,3.65,0,0,1-.66,1.69,2.43,2.43,0,0,1-1.31.86,7.31,7.31,0,0,1-2.16.24,6.86,6.86,0,0,1-1.93-.28,2.29,2.29,0,0,1-1.2-.88,4.09,4.09,0,0,1-.63-1.7,15.61,15.61,0,0,1-.19-2.71,15.42,15.42,0,0,1,.19-2.67,4,4,0,0,1,.64-1.69,2.45,2.45,0,0,1,1.22-.88A5.82,5.82,0,0,1,294.93,157.16Zm2.73,2.06h-3a1.79,1.79,0,0,0-.74.1.42.42,0,0,0-.2.42v6.41h3a1.71,1.71,0,0,0,.74-.11.45.45,0,0,0,.19-.42Zm2.58-5.48v14.15H299l-1.36-2.27V154Z"/><path class="cls-24" d="M308.37,168.12a8.76,8.76,0,0,1-2.31-.26,2.94,2.94,0,0,1-1.46-.88,3.86,3.86,0,0,1-.78-1.68,12.39,12.39,0,0,1-.24-2.66,12.55,12.55,0,0,1,.24-2.67,3.75,3.75,0,0,1,.78-1.68,3,3,0,0,1,1.46-.87,8.76,8.76,0,0,1,2.31-.26,9,9,0,0,1,2.33.25,3,3,0,0,1,1.47.87,3.62,3.62,0,0,1,.76,1.69,13.41,13.41,0,0,1,.22,2.67,12.46,12.46,0,0,1-.23,2.66,3.74,3.74,0,0,1-.77,1.68,3.11,3.11,0,0,1-1.47.88A8.86,8.86,0,0,1,308.37,168.12Zm-2.06-2.06h3.17a1.93,1.93,0,0,0,.77-.1.43.43,0,0,0,.19-.42v-6.32h-3.17a1.87,1.87,0,0,0-.76.1.42.42,0,0,0-.2.42Z"/><path class="cls-25" d="M321.24,159.13v-1.74H327v1.74Zm3.19,9a1.89,1.89,0,0,1-1.36-.42,1.73,1.73,0,0,1-.45-1.32V155.27l2.59-.65V166l.62.07a6,6,0,0,0,.81,0l-.15,1.76c-.45.08-.84.15-1.18.19A7.49,7.49,0,0,1,324.43,168.12Z"/><path class="cls-26" d="M332.68,168.12a3.59,3.59,0,0,1-2.54-.75,3.39,3.39,0,0,1-.77-2.5,5.09,5.09,0,0,1,.24-1.71,1.84,1.84,0,0,1,.86-1,4.69,4.69,0,0,1,1.79-.5,28.31,28.31,0,0,1,3.07-.13h1V163h-3a2.47,2.47,0,0,0-1.31.24,1.07,1.07,0,0,0-.33.91v2h2.35a2.43,2.43,0,0,0,1.29-.24,1,1,0,0,0,.35-.87v-5.78a6.65,6.65,0,0,0-1.89-.21,13.93,13.93,0,0,0-1.77.13,14.49,14.49,0,0,0-1.91.4l-.33-1.85a9.85,9.85,0,0,1,1.31-.36c.48-.09,1-.17,1.52-.22s1-.07,1.56-.07a7.71,7.71,0,0,1,2.38.3,2.38,2.38,0,0,1,1.3,1,3.55,3.55,0,0,1,.41,1.82v7.62h-1.24l-.67-1A5.59,5.59,0,0,1,332.68,168.12Z"/><path class="cls-27" d="M342.13,167.89v-10.5h1.22l.67,1.05a5.83,5.83,0,0,1,1.8-1,7.11,7.11,0,0,1,2.19-.31,4.16,4.16,0,0,1,2.24.49,1.61,1.61,0,0,1,.77,1.44v8.8h-2.59v-8.61h-2.16a2.34,2.34,0,0,0-1.23.23,1,1,0,0,0-.32.84v7.54Z"/><path class="cls-28" d="M358.32,164.85a7.12,7.12,0,0,1-2.56-.38,2.48,2.48,0,0,1-1.36-1.22,6.43,6.43,0,0,1,0-4.57,2.54,2.54,0,0,1,1.36-1.23,9,9,0,0,1,5.12,0,2.56,2.56,0,0,1,1.37,1.23,6.45,6.45,0,0,1,0,4.58,2.45,2.45,0,0,1-1.36,1.22A7.4,7.4,0,0,1,358.32,164.85Zm4.48,3.78a2.77,2.77,0,0,1-.43,1.61,2.43,2.43,0,0,1-1.38.88,9,9,0,0,1-2.52.28,15.86,15.86,0,0,1-2.3-.17,10.3,10.3,0,0,1-2-.48l.31-1.89c.7.18,1.32.31,1.86.4a11.24,11.24,0,0,0,1.65.12c.5,0,.95,0,1.35,0s.78-.09,1.15-.16v-1.38a20.93,20.93,0,0,1-3-.34c-.59-.14-.89-.33-.89-.57l.67-2.41h1.66l-.1,1.64a17.94,17.94,0,0,1,2,.32,3.84,3.84,0,0,1,1.21.45,1.47,1.47,0,0,1,.59.7A2.88,2.88,0,0,1,362.8,168.63Zm-6.3-5.34h2.31a1.65,1.65,0,0,0,1.05-.25,1.2,1.2,0,0,0,.29-.92v-3.49h-2.31a1.65,1.65,0,0,0-1,.25,1.13,1.13,0,0,0-.29.9Zm5.35-3.86-1.45-1.83,1.87-1.43,1.26,1.24Z"/><path class="cls-29" d="M367.42,157.39l.82,1.6a11.8,11.8,0,0,1,1.57-1.25,5.53,5.53,0,0,1,1.37-.66l.23,2.52a6.23,6.23,0,0,0-.92.31c-.33.14-.64.29-.95.44a5.32,5.32,0,0,0-.78.48v7.06h-2.58v-10.5Z"/><path class="cls-30" d="M376.51,168.12a3.57,3.57,0,0,1-2.54-.75,3.39,3.39,0,0,1-.78-2.5,5.09,5.09,0,0,1,.24-1.71,1.88,1.88,0,0,1,.86-1,4.8,4.8,0,0,1,1.8-.5,28.19,28.19,0,0,1,3.07-.13h1V163h-3a2.42,2.42,0,0,0-1.3.24,1.07,1.07,0,0,0-.34.91v2h2.36a2.43,2.43,0,0,0,1.29-.24,1,1,0,0,0,.34-.87v-5.78a6.56,6.56,0,0,0-1.89-.21,13.78,13.78,0,0,0-1.76.13,14.16,14.16,0,0,0-1.91.4l-.34-1.85a10,10,0,0,1,1.32-.36c.48-.09,1-.17,1.52-.22s1.05-.07,1.55-.07a7.73,7.73,0,0,1,2.39.3,2.38,2.38,0,0,1,1.3,1,3.55,3.55,0,0,1,.41,1.82v7.62H380.9l-.67-1A5.59,5.59,0,0,1,376.51,168.12Z"/><path class="cls-31" d="M386,167.89v-10.5h1.22l.67,1.05a5.6,5.6,0,0,1,1.73-1,6.39,6.39,0,0,1,2.05-.31,4.18,4.18,0,0,1,2.24.49,1.61,1.61,0,0,1,.76,1.44v8.8h-2.58v-8.61H390.1a2.29,2.29,0,0,0-1.23.23,1,1,0,0,0-.33.84v7.54Zm6.09,0v-10.5l1.89,1.05a5.6,5.6,0,0,1,1.73-1,6.39,6.39,0,0,1,2.05-.31,4.18,4.18,0,0,1,2.24.49,1.61,1.61,0,0,1,.76,1.44v8.8h-2.58v-8.61h-1.95a2.29,2.29,0,0,0-1.23.23,1,1,0,0,0-.33.84v7.54Z"/><path class="cls-32" d="M410.09,171.54V157.39h1.22l1.36,2.27v11.61Zm5.31-3.33a8,8,0,0,1-2.15-.25,2.36,2.36,0,0,1-1.32-.86,3.86,3.86,0,0,1-.67-1.7,17.32,17.32,0,0,1-.18-2.76,16.91,16.91,0,0,1,.18-2.73,3.72,3.72,0,0,1,.67-1.67,2.45,2.45,0,0,1,1.32-.84,8.07,8.07,0,0,1,2.15-.24,6.14,6.14,0,0,1,1.92.26,2.47,2.47,0,0,1,1.21.87,4.22,4.22,0,0,1,.63,1.68,19,19,0,0,1,0,5.36,4.34,4.34,0,0,1-.64,1.71,2.36,2.36,0,0,1-1.22.9A5.75,5.75,0,0,1,415.4,168.21Zm-2.73-2.06h3a1.77,1.77,0,0,0,.75-.11.44.44,0,0,0,.2-.42v-6.4h-3a2,2,0,0,0-.73.09.36.36,0,0,0-.2.35Z"/><path class="cls-33" d="M426.53,168.12a7.15,7.15,0,0,1-2.12-.27,2.65,2.65,0,0,1-1.35-.9,4.21,4.21,0,0,1-.73-1.68,12.83,12.83,0,0,1-.23-2.63,9.46,9.46,0,0,1,.45-3.25,3.06,3.06,0,0,1,1.48-1.72,6.31,6.31,0,0,1,2.77-.51,9.62,9.62,0,0,1,2.65.28,2.09,2.09,0,0,1,1.32,1,4.15,4.15,0,0,1,.38,2,5.16,5.16,0,0,1-.24,1.72,1.83,1.83,0,0,1-.91,1,5.41,5.41,0,0,1-1.91.5,31.77,31.77,0,0,1-3.26.13h-.63v-1.53h3a2.51,2.51,0,0,0,1.32-.24,1,1,0,0,0,.36-.91V159.2h-2.33a2.58,2.58,0,0,0-1.32.23,1,1,0,0,0-.36.88v5.63a8.1,8.1,0,0,0,2.08.21,12.29,12.29,0,0,0,1.71-.12,13.88,13.88,0,0,0,1.94-.41l.32,1.85a9.63,9.63,0,0,1-2,.48A15.21,15.21,0,0,1,426.53,168.12Z"/><path class="cls-34" d="M436,157.39l.82,1.6a12.48,12.48,0,0,1,1.57-1.25,5.71,5.71,0,0,1,1.37-.66l.23,2.52a6.14,6.14,0,0,0-.91.31c-.33.14-.65.29-1,.44a5.32,5.32,0,0,0-.78.48v7.06h-2.58v-10.5Z"/><path class="cls-35" d="M445.79,157.16a8.05,8.05,0,0,1,2.16.24,2.46,2.46,0,0,1,1.31.84,3.61,3.61,0,0,1,.66,1.67,15.7,15.7,0,0,1,.19,2.73,16.26,16.26,0,0,1-.19,2.78,3.65,3.65,0,0,1-.66,1.69A2.43,2.43,0,0,1,448,168a7.31,7.31,0,0,1-2.16.24,6.73,6.73,0,0,1-1.92-.28,2.27,2.27,0,0,1-1.21-.88,4.09,4.09,0,0,1-.63-1.7,15.61,15.61,0,0,1-.19-2.71A15.42,15.42,0,0,1,442,160a4,4,0,0,1,.64-1.69,2.5,2.5,0,0,1,1.22-.88A5.82,5.82,0,0,1,445.79,157.16Zm2.73,2.06h-3a1.79,1.79,0,0,0-.74.1.44.44,0,0,0-.2.42v6.41h3a1.71,1.71,0,0,0,.74-.11.45.45,0,0,0,.19-.42Zm2.58-5.48v14.15h-1.22l-1.36-2.27V154Z"/><path class="cls-36" d="M456.33,155.77a1.77,1.77,0,0,1-1.2-.3,1.63,1.63,0,0,1-.31-1.17,1.23,1.23,0,0,1,1.51-1.51,1.68,1.68,0,0,1,1.18.32,1.7,1.7,0,0,1,.31,1.19,1.68,1.68,0,0,1-.3,1.17A1.74,1.74,0,0,1,456.33,155.77Zm-1.3,1.85,2.58-.36v10.63H455Z"/><path class="cls-37" d="M464.9,157.16a8.05,8.05,0,0,1,2.16.24,2.46,2.46,0,0,1,1.31.84,3.61,3.61,0,0,1,.66,1.67,15.7,15.7,0,0,1,.19,2.73,16.26,16.26,0,0,1-.19,2.78,3.65,3.65,0,0,1-.66,1.69,2.43,2.43,0,0,1-1.31.86,7.31,7.31,0,0,1-2.16.24,6.73,6.73,0,0,1-1.92-.28,2.27,2.27,0,0,1-1.21-.88,4.09,4.09,0,0,1-.63-1.7,15.61,15.61,0,0,1-.19-2.71,15.42,15.42,0,0,1,.19-2.67,4,4,0,0,1,.64-1.69,2.5,2.5,0,0,1,1.22-.88A5.82,5.82,0,0,1,464.9,157.16Zm2.73,2.06h-3a1.79,1.79,0,0,0-.74.1.44.44,0,0,0-.2.42v6.41h3a1.71,1.71,0,0,0,.74-.11.45.45,0,0,0,.19-.42Zm2.58-5.48v14.15H469l-1.36-2.27V154Z"/><path class="cls-38" d="M478.34,168.12a8.76,8.76,0,0,1-2.31-.26,2.94,2.94,0,0,1-1.46-.88,3.86,3.86,0,0,1-.78-1.68,12.39,12.39,0,0,1-.24-2.66,12.55,12.55,0,0,1,.24-2.67,3.75,3.75,0,0,1,.78-1.68,3,3,0,0,1,1.46-.87,8.76,8.76,0,0,1,2.31-.26,9,9,0,0,1,2.33.25,3,3,0,0,1,1.47.87,3.62,3.62,0,0,1,.76,1.69,13.32,13.32,0,0,1,.23,2.67,12.39,12.39,0,0,1-.24,2.66,3.74,3.74,0,0,1-.77,1.68,3.11,3.11,0,0,1-1.47.88A8.86,8.86,0,0,1,478.34,168.12Zm-2.06-2.06h3.17a1.93,1.93,0,0,0,.77-.1.44.44,0,0,0,.2-.42v-6.32h-3.17a1.89,1.89,0,0,0-.77.1.44.44,0,0,0-.2.42Z"/></g></g></svg>